<svg class="svg-icon" style="width: 1em; height: 1em;vertical-align: middle;fill: currentColor;overflow: hidden;" viewBox="0 0 1024 1024" version="1.1" xmlns="http://www.w3.org/2000/svg"><path d="M320 356.16a244.16 244.16 0 0 1 0-209.28 40 40 0 0 0-72.96-33.92 324.16 324.16 0 0 0 0 277.12A40 40 0 0 0 320 356.16z m192 7.36a112 112 0 1 0-112-112 112 112 0 0 0 112 112z m264.96 26.56a324.48 324.48 0 0 0 0-277.12A40 40 0 0 0 704 146.88a244.48 244.48 0 0 1 0 209.28 40 40 0 0 0 72.96 33.92z m-612.8 20.16a370.88 370.88 0 0 1 0-317.44 40 40 0 0 0-72.32-33.92 450.88 450.88 0 0 0 0 384 40 40 0 0 0 72.32-32.64z m768-352a40 40 0 0 0-72.32 34.56 370.56 370.56 0 0 1 0 317.44 40 40 0 0 0 72.32 33.92 450.56 450.56 0 0 0 0-384zM576 443.52a64 64 0 0 0 0-10.88 188.48 188.48 0 0 1-125.76 0 64 64 0 0 0 0 10.88C448 672 209.92 846.4 178.88 878.4a64 64 0 0 0 83.2 96c236.8-176.64 316.8-135.68 499.84 0a64 64 0 0 0 83.2-96c-32-32-269.12-208-269.12-434.88z" fill="#231F20" /></svg>