<svg class="svg-icon" style="width: 1em;height: 1em;vertical-align: middle;fill: currentColor;overflow: hidden;" viewBox="0 0 1024 1024" version="1.1" xmlns="http://www.w3.org/2000/svg"><path d="M734.272 323.136l104.896-46.08a40.768 40.768 0 0 1 38.4 2.944c11.52 7.424 18.432 20.032 18.432 33.536v396.928a39.872 39.872 0 0 1-18.368 33.536 40.768 40.768 0 0 1-38.464 3.008l-104.896-46.08v51.072c0 44.16-36.16 80-80.768 80H208.832C164.224 832 128 796.16 128 752v-480C128 227.84 164.224 192 208.832 192h444.672c44.608 0 80.768 35.84 80.768 80v51.136zM330.112 389.376v245.248c0 7.36 4.096 14.08 10.688 17.6a20.416 20.416 0 0 0 20.736-0.96L547.392 528.64a19.968 19.968 0 0 0 0-33.28L361.6 372.736a20.416 20.416 0 0 0-20.736-0.96 19.968 19.968 0 0 0-10.688 17.6z"  /></svg>