<svg class="svg-icon" style="width: 1em;height: 1em;vertical-align: middle;fill: currentColor;overflow: hidden;" viewBox="0 0 1024 1024" version="1.1" xmlns="http://www.w3.org/2000/svg"><path d="M395.811763 477.062995l116.065874 116.065873 116.168269-116.065873a51.198003 51.198003 0 0 1 72.393977 72.393976L584.322811 665.574043l58.877704 58.877703a153.08203 153.08203 0 0 1 38.910483-7.42371L691.173044 716.772046a153.59401 153.59401 0 1 1-129.530948 71.01163L511.980033 737.968019l-49.662063 49.764459c13.721065 21.503161 22.271131 46.590183 23.858269 73.622729L486.381031 870.366056a153.59401 153.59401 0 1 1-105.723877-145.965508l58.826506-58.877703-116.065873-116.065874a51.198003 51.198003 0 1 1 72.393976-72.393976zM332.787021 819.168052a51.198003 51.198003 0 1 0 0 102.396007 51.198003 51.198003 0 0 0 0-102.396007z m358.386023 0a51.198003 51.198003 0 1 0 0 102.396007 51.198003 51.198003 0 0 0 0-102.396007zM921.564059 0a102.396007 102.396007 0 0 1 102.396007 102.396007v511.980032a102.396007 102.396007 0 0 1-102.396007 102.396007h-51.198003v-102.396007a51.198003 51.198003 0 0 0 51.198003-51.198003V153.59401a51.198003 51.198003 0 0 0-51.198003-51.198003H153.59401a51.198003 51.198003 0 0 0-51.198003 51.198003v409.584026a51.198003 51.198003 0 0 0 51.198003 51.198003v102.396007H102.396007a102.396007 102.396007 0 0 1-102.396007-102.396007V102.396007a102.396007 102.396007 0 0 1 102.396007-102.396007h819.168052z"  /></svg>